<?xml version="1.0" standalone="no"?>
<!DOCTYPE svg PUBLIC "-//W3C//DTD SVG 20010904//EN"
 "http://www.w3.org/TR/2001/REC-SVG-20010904/DTD/svg10.dtd">
<svg version="1.0" xmlns="http://www.w3.org/2000/svg"
 width="700.000000pt" height="700.000000pt" viewBox="0 0 700.000000 700.000000"
 preserveAspectRatio="xMidYMid meet">
<metadata>
Created by potrace 1.14, written by Peter Selinger 2001-2017
</metadata>
<g transform="translate(0.000000,700.000000) scale(0.100000,-0.100000)"
fill="#000000" stroke="none">
<path d="M4360 5589 c-122 -19 -200 -71 -241 -161 l-24 -53 -5 -677 -5 -676
-65 49 c-85 65 -264 154 -365 181 -68 18 -107 22 -265 22 -169 0 -194 -3 -283
-27 -331 -89 -655 -344 -843 -663 -346 -588 -235 -1343 267 -1819 173 -164
348 -263 568 -323 87 -23 113 -26 286 -26 174 0 198 3 287 26 116 32 247 97
343 172 l70 55 19 -57 c29 -86 102 -154 197 -183 128 -40 376 -31 471 18 44
22 98 73 118 113 45 89 45 75 45 1950 0 1688 -1 1779 -18 1853 -27 115 -93
181 -210 213 -67 19 -264 26 -347 13z m-738 -2180 c264 -55 454 -315 435 -598
-15 -234 -181 -458 -387 -522 -206 -64 -406 -14 -561 140 -122 122 -172 244
-171 421 0 172 50 298 162 411 69 70 152 117 250 143 66 18 199 20 272 5z"/>
</g>
</svg>
