<?xml version="1.0" encoding="UTF-8" standalone="no"?>
<!-- Created with Inkscape (http://www.inkscape.org/) -->

<svg
   width="132.21559mm"
   height="33.279678mm"
   viewBox="0 0 132.21559 33.279678"
   version="1.1"
   id="svg5"
   inkscape:version="1.1.2 (b8e25be833, 2022-02-05)"
   sodipodi:docname="drawing.svg"
   xmlns:inkscape="http://www.inkscape.org/namespaces/inkscape"
   xmlns:sodipodi="http://sodipodi.sourceforge.net/DTD/sodipodi-0.dtd"
   xmlns="http://www.w3.org/2000/svg"
   xmlns:svg="http://www.w3.org/2000/svg">
  <sodipodi:namedview
     id="namedview7"
     pagecolor="#ffffff"
     bordercolor="#666666"
     borderopacity="1.0"
     inkscape:pageshadow="2"
     inkscape:pageopacity="0.0"
     inkscape:pagecheckerboard="0"
     inkscape:document-units="mm"
     showgrid="false"
     fit-margin-top="0"
     fit-margin-left="0"
     fit-margin-right="0"
     fit-margin-bottom="0"
     inkscape:zoom="2.8792368"
     inkscape:cx="240.86244"
     inkscape:cy="29.695369"
     inkscape:window-width="1920"
     inkscape:window-height="1001"
     inkscape:window-x="-9"
     inkscape:window-y="-9"
     inkscape:window-maximized="1"
     inkscape:current-layer="layer1" />
  <defs
     id="defs2" />
  <g
     inkscape:label="Layer 1"
     inkscape:groupmode="layer"
     id="layer1"
     transform="translate(-36.093597,-79.59812)">
    <g
       aria-label="doblar"
       id="text891"
       style="font-size:45.1556px;line-height:1.25;stroke-width:0.264583">
      <path
         d="m 46.43423,112.4714 q -2.032002,0 -3.928537,-0.85796 -1.85138,-0.90311 -3.296359,-2.48356 -1.444979,-1.58044 -2.302936,-3.61244 -0.812801,-2.07716 -0.812801,-4.3801 0,-2.212622 0.812801,-4.199469 0.857957,-2.032002 2.302936,-3.567292 1.490135,-1.580446 3.341515,-2.483559 1.851379,-0.903112 3.883381,-0.903112 2.167469,0 3.793071,0.903112 1.670757,0.857957 2.799647,2.393247 1.12889,1.535291 1.670757,3.567293 0.587023,2.032002 0.632179,4.24463 0.04516,2.30293 -0.541867,4.33493 -0.541868,2.03201 -1.670758,3.61245 -1.12889,1.58045 -2.799647,2.52872 -1.625602,0.90311 -3.883382,0.90311 z m 0.903112,-6.68303 q 1.219202,0 2.167469,-0.58702 0.993423,-0.63218 1.580446,-1.67076 0.632179,-1.03858 0.632179,-2.30294 0,-1.309509 -0.587023,-2.302932 -0.587023,-1.038579 -1.580446,-1.625602 -0.993423,-0.587023 -2.25778,-0.587023 -1.219202,0 -2.25778,0.587023 -0.993424,0.587023 -1.580446,1.625602 -0.541868,0.993423 -0.541868,2.302932 0,1.26436 0.587023,2.30294 0.587023,1.03858 1.625602,1.67076 1.038579,0.58702 2.212624,0.58702 z m 7.902231,6.72818 q -1.535291,0 -2.302936,-0.49671 -0.767645,-0.49671 -0.993423,-1.53529 V 83.120257 q 0,-0.857956 0.09031,-1.625602 0.135467,-0.8128 0.812801,-1.309512 0.677334,-0.496712 2.348091,-0.496712 1.670757,0 2.348091,0.496712 0.72249,0.451556 0.857957,1.219201 0.180622,0.767645 0.180622,1.670757 v 26.009629 q 0,0.85795 -0.180622,1.67076 -0.135467,0.76764 -0.857957,1.26435 -0.677334,0.49671 -2.302935,0.49671 z"
         id="path12898" />
      <path
         d="m 73.030868,112.8778 q -2.122313,0 -4.244627,-0.8128 -2.077157,-0.85796 -3.79307,-2.39325 -1.715913,-1.53529 -2.709336,-3.6576 -0.993423,-2.16747 -0.993423,-4.7865 0,-2.438399 0.903112,-4.515557 0.903112,-2.122313 2.528713,-3.747915 1.625602,-1.625601 3.70276,-2.528714 2.122313,-0.948267 4.51556,-0.948267 3.251203,0 5.870228,1.580446 2.664181,1.53529 4.244627,4.199471 1.580446,2.66418 1.580446,5.915386 0,2.75449 -1.038579,4.92196 -0.993423,2.12231 -2.709336,3.6576 -1.670758,1.53529 -3.747915,2.34809 -2.032002,0.76765 -4.10916,0.76765 z m -0.09031,-6.8185 q 1.083734,0 2.212624,-0.54186 1.12889,-0.54187 1.896536,-1.62561 0.767645,-1.08373 0.767645,-2.75449 0,-1.444977 -0.632179,-2.528712 -0.632178,-1.083734 -1.761068,-1.670757 -1.083735,-0.632178 -2.528714,-0.632178 -1.354668,0 -2.438402,0.632178 -1.038579,0.632179 -1.715913,1.761069 -0.632179,1.083734 -0.632179,2.48356 0,1.6256 0.72249,2.75449 0.767645,1.08373 1.896535,1.6256 1.12889,0.49671 2.212625,0.49671 z"
         id="path12900" />
      <path
         d="m 99.537206,112.4714 q -2.212624,0 -3.928537,-0.90311 -1.670757,-0.94827 -2.799647,-2.52872 -1.083735,-1.58044 -1.670757,-3.61245 -0.541868,-2.032 -0.496712,-4.33493 0,-2.212628 0.587023,-4.24463 0.587023,-2.032002 1.670757,-3.567293 1.12889,-1.53529 2.754492,-2.393247 1.670757,-0.903112 3.883381,-0.903112 1.986844,0 3.838224,0.903112 1.89654,0.903113 3.34152,2.483559 1.44498,1.53529 2.25778,3.567292 0.85795,1.986847 0.85795,4.199469 0,2.30294 -0.85795,4.3801 -0.8128,2.032 -2.25778,3.61244 -1.44498,1.58045 -3.29636,2.48356 -1.85138,0.85796 -3.883384,0.85796 z m -0.948267,-6.68303 q 1.264357,0 2.257781,-0.58702 0.99342,-0.63218 1.58044,-1.67076 0.63218,-1.03858 0.63218,-2.30294 0,-1.309509 -0.58702,-2.302932 -0.58702,-1.038579 -1.58045,-1.625602 -0.993419,-0.587023 -2.257776,-0.587023 -1.219201,0 -2.25778,0.587023 -0.993423,0.587023 -1.580446,1.625602 -0.541867,0.993423 -0.541867,2.302932 0,1.26436 0.587023,2.30294 0.587023,1.03858 1.580446,1.67076 0.993423,0.58702 2.167469,0.58702 z m -7.857075,6.72818 q -1.625602,0 -2.348091,-0.49671 -0.72249,-0.49671 -0.903112,-1.26435 -0.135467,-0.81281 -0.135467,-1.67076 V 83.120257 q 0,-0.948268 0.180622,-1.715913 0.180623,-0.767645 0.857957,-1.219201 0.722489,-0.496712 2.393247,-0.496712 1.625601,0 2.302935,0.496712 0.677334,0.496712 0.812801,1.309512 0.135467,0.767646 0.09031,1.625602 v 27.364293 q -0.225778,1.03858 -0.948267,1.53529 -0.72249,0.49671 -2.302936,0.49671 z"
         id="path12902" />
      <path
         d="m 121.52797,112.51655 q -1.85138,0 -3.29636,-0.22577 -1.39982,-0.18063 -2.4384,-0.72249 -0.99342,-0.54187 -1.6256,-1.49014 -0.63218,-0.94827 -0.94827,-2.4384 -0.27093,-1.53529 -0.27093,-3.74792 V 83.029946 q 0,-0.903112 0.13547,-1.670757 0.18062,-0.767646 0.90311,-1.264357 0.72249,-0.496712 2.34809,-0.496712 1.6256,0 2.30293,0.496712 0.72249,0.496711 0.90312,1.264357 0.18062,0.767645 0.18062,1.670757 v 20.545794 q 0,0.72249 0.0452,1.21921 0.0903,0.45155 0.27094,0.72249 0.22578,0.27093 0.58702,0.36124 0.36125,0.0903 0.94827,0.0903 0.54187,0 1.08373,0.13547 0.58703,0.13547 0.99343,0.8128 0.4064,0.67733 0.4064,2.25778 0,1.6256 -0.4064,2.34809 -0.4064,0.72249 -0.99343,0.85796 -0.54186,0.13546 -1.12889,0.13546 z"
         id="path12904" />
      <path
         d="m 144.87345,112.4714 q -1.67076,0 -2.48356,-0.58702 -0.76765,-0.58703 -0.76765,-1.44498 l 0.45156,-0.76765 q -0.27093,0.45156 -1.03858,1.12889 -0.76764,0.63218 -1.98684,1.17405 -1.21921,0.49671 -3.02543,0.49671 -2.07716,0 -3.97369,-0.90311 -1.85138,-0.90312 -3.29636,-2.48356 -1.44498,-1.6256 -2.30294,-3.65761 -0.8128,-2.032 -0.8128,-4.28978 0,-2.212622 0.8128,-4.199469 0.85796,-2.032002 2.30294,-3.567292 1.49013,-1.580446 3.34151,-2.483559 1.85138,-0.903112 3.92854,-0.903112 1.67076,0 2.8448,0.496712 1.17405,0.451556 1.94169,1.083735 0.8128,0.632178 1.21921,1.219201 l -0.36125,-0.632179 q -0.0452,-1.083734 0.72249,-1.625601 0.8128,-0.587023 2.52871,-0.587023 1.62561,0 2.30294,0.496711 0.72249,0.496712 0.85796,1.309513 0.18062,0.812801 0.18062,1.715913 v 15.57868 q 0,0.85796 -0.18062,1.67076 -0.13547,0.8128 -0.85796,1.30951 -0.67733,0.45156 -2.34809,0.45156 z m -7.85708,-6.72819 q 1.17405,0 2.12232,-0.58702 0.99342,-0.63218 1.53529,-1.67076 0.58702,-1.03858 0.58702,-2.30293 0,-1.309515 -0.58702,-2.302938 -0.58703,-1.038579 -1.58045,-1.625602 -0.99342,-0.632178 -2.16747,-0.632178 -1.30951,0 -2.34809,0.632178 -0.99342,0.632179 -1.6256,1.670758 -0.58702,1.038578 -0.58702,2.348092 0,1.2192 0.58702,2.25778 0.63218,0.99342 1.67076,1.6256 1.08373,0.58702 2.39324,0.58702 z"
         id="path12906" />
      <path
         d="m 155.25923,112.51655 q -1.67076,0 -2.39325,-0.45155 -0.67734,-0.49671 -0.85796,-1.30951 -0.13546,-0.81281 -0.13546,-1.67076 V 93.325423 q 0,-0.903112 0.18062,-1.670757 0.18062,-0.767646 0.85795,-1.219202 0.72249,-0.496711 2.39325,-0.496711 1.58045,0 2.25778,0.451556 0.72249,0.4064 0.90311,0.993423 0.18063,0.541867 0.18063,0.948268 l -0.54187,0.270933 q 0.0903,-0.180622 0.45155,-0.632178 0.4064,-0.496712 1.08374,-0.993423 0.67733,-0.541868 1.6256,-0.903112 0.99342,-0.361245 2.25778,-0.361245 0.49671,0 1.08373,0.09031 0.63218,0.04516 1.26436,0.270934 0.67734,0.180622 1.2192,0.541867 0.54187,0.316089 0.85796,0.812801 0.36124,0.496711 0.36124,1.219201 0,1.85138 -0.85795,3.160892 -0.85796,1.264357 -2.16747,1.264357 -0.76765,0 -1.08374,-0.135467 -0.31608,-0.135467 -0.54186,-0.270934 -0.18063,-0.135466 -0.45156,-0.225778 -0.27093,-0.135466 -0.99342,-0.135466 -0.67734,0 -1.30951,0.180622 -0.58703,0.180622 -1.12889,0.587023 -0.49672,0.361245 -0.81281,0.948268 -0.27093,0.541867 -0.27093,1.219201 v 9.934233 q 0,0.85796 -0.18062,1.67076 -0.13547,0.76764 -0.85796,1.2192 -0.72249,0.45155 -2.39324,0.45155 z"
         id="path12908" />
    </g>
  </g>
</svg>
